G04*
G04 #@! TF.GenerationSoftware,Altium Limited,Altium Designer,20.1.14 (287)*
G04*
G04 Layer_Physical_Order=1*
G04 Layer_Color=255*
%FSLAX24Y24*%
%MOIN*%
G70*
G04*
G04 #@! TF.SameCoordinates,19A3D798-3CF0-405C-A59C-C3945E4A3CB0*
G04*
G04*
G04 #@! TF.FilePolarity,Positive*
G04*
G01*
G75*
%ADD18C,0.0150*%
%ADD19C,0.1890*%
%ADD20C,0.0630*%
%ADD21R,0.0630X0.0630*%
%ADD22R,0.0650X0.0650*%
%ADD23C,0.0650*%
D18*
X600Y8150D02*
X2697Y6053D01*
X3400D01*
X600Y10150D02*
X2894Y7856D01*
X3400D01*
X600Y4150D02*
X950Y3800D01*
X4950D01*
X5400Y4250D01*
X2850Y5603D02*
X3586D01*
X600Y7150D02*
X1303D01*
X2850Y5603D01*
X600Y6150D02*
X1600D01*
X600Y9150D02*
X2795Y6955D01*
X3586Y5603D02*
X4034Y6050D01*
X5397D01*
X5400Y6053D01*
X2795Y6955D02*
X3400D01*
X1600Y6150D02*
X3050Y4700D01*
X3765D01*
X4215Y5150D01*
X5399D01*
X5400Y5152D01*
D19*
X4400Y11072D02*
D03*
Y1234D02*
D03*
D20*
X3400Y6955D02*
D03*
X5400D02*
D03*
Y7856D02*
D03*
X3400Y6053D02*
D03*
Y5152D02*
D03*
Y4250D02*
D03*
X5400Y6053D02*
D03*
Y5152D02*
D03*
Y4250D02*
D03*
X4400Y8305D02*
D03*
Y7404D02*
D03*
Y6502D02*
D03*
Y5600D02*
D03*
Y4699D02*
D03*
D21*
X3400Y7856D02*
D03*
D22*
X600Y10150D02*
D03*
D23*
Y9150D02*
D03*
Y8150D02*
D03*
Y7150D02*
D03*
Y6150D02*
D03*
Y5150D02*
D03*
Y4150D02*
D03*
Y3150D02*
D03*
Y2150D02*
D03*
M02*
