M48
;Layer_Color=9474304
;FILE_FORMAT=2:4
INCH,TZ
;TYPE=PLATED
T1F00S00C0.0400
T2F00S00C0.0413
T3F00S00C0.1260
%
T01
X600Y2150
Y3150
Y4150
Y5150
Y6150
Y7150
Y8150
Y9150
Y10150
T02
X3400Y4250
Y5152
Y6053
Y6955
Y7856
X4400Y8305
Y7404
Y6502
Y5600
Y4699
X5400Y4250
Y5152
Y6053
Y6955
Y7856
T03
X4400Y1234
Y11072
M30
