G04*
G04 #@! TF.GenerationSoftware,Altium Limited,Altium Designer,20.1.14 (287)*
G04*
G04 Layer_Physical_Order=2*
G04 Layer_Color=16711680*
%FSLAX24Y24*%
%MOIN*%
G70*
G04*
G04 #@! TF.SameCoordinates,19A3D798-3CF0-405C-A59C-C3945E4A3CB0*
G04*
G04*
G04 #@! TF.FilePolarity,Positive*
G04*
G01*
G75*
%ADD18C,0.0150*%
%ADD19C,0.1890*%
%ADD20C,0.0630*%
%ADD21R,0.0630X0.0630*%
%ADD22R,0.0650X0.0650*%
%ADD23C,0.0650*%
D18*
X2855Y7405D02*
X3763D01*
X600Y5150D02*
X2855Y7405D01*
X3052Y5602D02*
X4399D01*
X600Y3150D02*
X3052Y5602D01*
X3763Y7405D02*
X4214Y6954D01*
X5399D01*
X5400Y6955D01*
X4399Y5602D02*
X4400Y5600D01*
D19*
Y11072D02*
D03*
Y1234D02*
D03*
D20*
X3400Y6955D02*
D03*
X5400D02*
D03*
Y7856D02*
D03*
X3400Y6053D02*
D03*
Y5152D02*
D03*
Y4250D02*
D03*
X5400Y6053D02*
D03*
Y5152D02*
D03*
Y4250D02*
D03*
X4400Y8305D02*
D03*
Y7404D02*
D03*
Y6502D02*
D03*
Y5600D02*
D03*
Y4699D02*
D03*
D21*
X3400Y7856D02*
D03*
D22*
X600Y10150D02*
D03*
D23*
Y9150D02*
D03*
Y8150D02*
D03*
Y7150D02*
D03*
Y6150D02*
D03*
Y5150D02*
D03*
Y4150D02*
D03*
Y3150D02*
D03*
Y2150D02*
D03*
M02*
